<mxfile host="app.diagrams.net" modified="2023-11-28T10:58:38.518Z" agent="Mozilla/5.0 (Windows NT 10.0; Win64; x64) AppleWebKit/537.36 (KHTML, like Gecko) Chrome/119.0.0.0 Safari/537.36" etag="6fhsVjVk2mb6riIsB2QE" version="22.1.4" type="github">
  <diagram name="Seite-1" id="CLmP0bIiRg5l0suLkZcy">
    <mxGraphModel dx="1050" dy="585" grid="1" gridSize="10" guides="1" tooltips="1" connect="1" arrows="1" fold="1" page="1" pageScale="1" pageWidth="827" pageHeight="1169" math="0" shadow="0">
      <root>
        <mxCell id="0" />
        <mxCell id="1" parent="0" />
        <mxCell id="_P5Nw4X9jScVsucTwRtx-12" style="edgeStyle=orthogonalEdgeStyle;rounded=0;orthogonalLoop=1;jettySize=auto;html=1;exitX=1;exitY=0.5;exitDx=0;exitDy=0;entryX=0;entryY=0.5;entryDx=0;entryDy=0;" parent="1" source="_P5Nw4X9jScVsucTwRtx-1" target="_P5Nw4X9jScVsucTwRtx-2" edge="1">
          <mxGeometry relative="1" as="geometry" />
        </mxCell>
        <mxCell id="_P5Nw4X9jScVsucTwRtx-14" style="edgeStyle=orthogonalEdgeStyle;rounded=0;orthogonalLoop=1;jettySize=auto;html=1;exitX=1;exitY=0.5;exitDx=0;exitDy=0;entryX=0;entryY=0.5;entryDx=0;entryDy=0;" parent="1" source="_P5Nw4X9jScVsucTwRtx-1" target="_P5Nw4X9jScVsucTwRtx-3" edge="1">
          <mxGeometry relative="1" as="geometry" />
        </mxCell>
        <mxCell id="_P5Nw4X9jScVsucTwRtx-15" style="edgeStyle=orthogonalEdgeStyle;rounded=0;orthogonalLoop=1;jettySize=auto;html=1;exitX=1;exitY=0.5;exitDx=0;exitDy=0;entryX=0;entryY=0.5;entryDx=0;entryDy=0;" parent="1" source="_P5Nw4X9jScVsucTwRtx-1" target="_P5Nw4X9jScVsucTwRtx-4" edge="1">
          <mxGeometry relative="1" as="geometry" />
        </mxCell>
        <mxCell id="_P5Nw4X9jScVsucTwRtx-1" value="DHBWhub" style="rounded=1;whiteSpace=wrap;html=1;" parent="1" vertex="1">
          <mxGeometry x="50" y="220" width="120" height="60" as="geometry" />
        </mxCell>
        <mxCell id="_P5Nw4X9jScVsucTwRtx-9" style="edgeStyle=orthogonalEdgeStyle;rounded=0;orthogonalLoop=1;jettySize=auto;html=1;exitX=1;exitY=0.5;exitDx=0;exitDy=0;entryX=0;entryY=0.5;entryDx=0;entryDy=0;" parent="1" source="_P5Nw4X9jScVsucTwRtx-2" target="_P5Nw4X9jScVsucTwRtx-8" edge="1">
          <mxGeometry relative="1" as="geometry" />
        </mxCell>
        <mxCell id="_P5Nw4X9jScVsucTwRtx-11" style="edgeStyle=orthogonalEdgeStyle;rounded=0;orthogonalLoop=1;jettySize=auto;html=1;exitX=1;exitY=0.5;exitDx=0;exitDy=0;entryX=0;entryY=0.5;entryDx=0;entryDy=0;" parent="1" source="_P5Nw4X9jScVsucTwRtx-2" target="_P5Nw4X9jScVsucTwRtx-10" edge="1">
          <mxGeometry relative="1" as="geometry" />
        </mxCell>
        <mxCell id="_P5Nw4X9jScVsucTwRtx-2" value="Usability" style="rounded=1;whiteSpace=wrap;html=1;" parent="1" vertex="1">
          <mxGeometry x="240" y="110" width="100" height="30" as="geometry" />
        </mxCell>
        <mxCell id="_P5Nw4X9jScVsucTwRtx-18" style="edgeStyle=orthogonalEdgeStyle;rounded=0;orthogonalLoop=1;jettySize=auto;html=1;exitX=1;exitY=0.5;exitDx=0;exitDy=0;entryX=0;entryY=0.5;entryDx=0;entryDy=0;" parent="1" source="_P5Nw4X9jScVsucTwRtx-3" target="_P5Nw4X9jScVsucTwRtx-17" edge="1">
          <mxGeometry relative="1" as="geometry" />
        </mxCell>
        <mxCell id="_P5Nw4X9jScVsucTwRtx-19" style="edgeStyle=orthogonalEdgeStyle;rounded=0;orthogonalLoop=1;jettySize=auto;html=1;exitX=1;exitY=0.5;exitDx=0;exitDy=0;entryX=0;entryY=0.5;entryDx=0;entryDy=0;" parent="1" source="_P5Nw4X9jScVsucTwRtx-3" target="_P5Nw4X9jScVsucTwRtx-16" edge="1">
          <mxGeometry relative="1" as="geometry" />
        </mxCell>
        <mxCell id="_P5Nw4X9jScVsucTwRtx-3" value="Availability" style="rounded=1;whiteSpace=wrap;html=1;" parent="1" vertex="1">
          <mxGeometry x="240" y="235" width="100" height="30" as="geometry" />
        </mxCell>
        <mxCell id="_P5Nw4X9jScVsucTwRtx-7" style="edgeStyle=orthogonalEdgeStyle;rounded=0;orthogonalLoop=1;jettySize=auto;html=1;exitX=1;exitY=0.5;exitDx=0;exitDy=0;entryX=0;entryY=0.5;entryDx=0;entryDy=0;" parent="1" source="_P5Nw4X9jScVsucTwRtx-4" target="_P5Nw4X9jScVsucTwRtx-5" edge="1">
          <mxGeometry relative="1" as="geometry" />
        </mxCell>
        <mxCell id="_P5Nw4X9jScVsucTwRtx-21" style="edgeStyle=orthogonalEdgeStyle;rounded=0;orthogonalLoop=1;jettySize=auto;html=1;exitX=1;exitY=0.5;exitDx=0;exitDy=0;entryX=0;entryY=0.5;entryDx=0;entryDy=0;" parent="1" source="_P5Nw4X9jScVsucTwRtx-4" target="_P5Nw4X9jScVsucTwRtx-20" edge="1">
          <mxGeometry relative="1" as="geometry" />
        </mxCell>
        <mxCell id="_P5Nw4X9jScVsucTwRtx-4" value="Performance" style="rounded=1;whiteSpace=wrap;html=1;" parent="1" vertex="1">
          <mxGeometry x="240" y="350" width="100" height="30" as="geometry" />
        </mxCell>
        <mxCell id="_P5Nw4X9jScVsucTwRtx-5" value="Response time&amp;nbsp;" style="rounded=1;whiteSpace=wrap;html=1;" parent="1" vertex="1">
          <mxGeometry x="384" y="320" width="60" height="25" as="geometry" />
        </mxCell>
        <mxCell id="_P5Nw4X9jScVsucTwRtx-8" value="Compliance" style="rounded=1;whiteSpace=wrap;html=1;" parent="1" vertex="1">
          <mxGeometry x="384" y="85" width="60" height="25" as="geometry" />
        </mxCell>
        <mxCell id="_P5Nw4X9jScVsucTwRtx-10" value="Operability" style="rounded=1;whiteSpace=wrap;html=1;" parent="1" vertex="1">
          <mxGeometry x="384" y="140" width="60" height="25" as="geometry" />
        </mxCell>
        <mxCell id="_P5Nw4X9jScVsucTwRtx-16" value="Data loss" style="rounded=1;whiteSpace=wrap;html=1;" parent="1" vertex="1">
          <mxGeometry x="384" y="200" width="60" height="25" as="geometry" />
        </mxCell>
        <mxCell id="_P5Nw4X9jScVsucTwRtx-17" value="Response time&amp;nbsp;" style="rounded=1;whiteSpace=wrap;html=1;" parent="1" vertex="1">
          <mxGeometry x="384" y="280" width="60" height="25" as="geometry" />
        </mxCell>
        <mxCell id="_P5Nw4X9jScVsucTwRtx-20" value="Response time&amp;nbsp;" style="rounded=1;whiteSpace=wrap;html=1;" parent="1" vertex="1">
          <mxGeometry x="384" y="390" width="60" height="25" as="geometry" />
        </mxCell>
        <mxCell id="_P5Nw4X9jScVsucTwRtx-22" value="Text" style="text;html=1;strokeColor=none;fillColor=none;align=center;verticalAlign=middle;whiteSpace=wrap;rounded=0;" parent="1" vertex="1">
          <mxGeometry x="500" y="135" width="60" height="30" as="geometry" />
        </mxCell>
      </root>
    </mxGraphModel>
  </diagram>
</mxfile>
